<svg version="1.1" xmlns="http://www.w3.org/2000/svg" viewBox="0 0 4499.022260170126 6241.720830678851" width="4499.022260170126" height="6241.720830678851">
  <!-- svg-source:excalidraw -->
  
  <defs>
    <style>
      @font-face {
        font-family: "Virgil";
        src: url("https://excalidraw.com/Virgil.woff2");
      }
      @font-face {
        font-family: "Cascadia";
        src: url("https://excalidraw.com/Cascadia.woff2");
      }
    </style>
  </defs>
  <rect x="0" y="0" width="4499.022260170126" height="6241.720830678851" fill="#ffffff"></rect><g stroke-linecap="round" transform="translate(3186.4213356941964 836.1899196226881) rotate(0 132.5 100.49999999999997)"><path d="M1.08 -0.16 C82.28 1.13, 162.28 0.35, 263.95 0.96 M-0.75 0.68 C80.47 0.65, 159.52 0.51, 264.25 -0.77 M266.76 0.77 C263.35 40.71, 264.21 81.07, 266.8 201.86 M264.11 0.41 C266.46 45.47, 266.57 92.84, 265.61 201.7 M264.51 200.14 C178.84 199.42, 94.35 199.85, 1.36 199.86 M265.19 200.73 C205.94 200.51, 148.61 199.87, 0.63 201.65 M0.17 199.22 C-2.04 157.82, -0.41 112.59, -1.18 -1.28 M-0.09 200.48 C1.04 137.03, 1.03 72.4, 0.88 -0.85" stroke="#000000" stroke-width="1" fill="none"></path></g><g stroke-linecap="round"><g transform="translate(3186.4213356941964 904.1899196226881) rotate(0 132.1487235643715 -1.1348252212256398)"><path d="M0.11 -1.19 C44.22 -1.59, 221.16 -1.18, 265.58 -1.31 M-1.28 0.8 C42.55 0.57, 219.82 -2.82, 264.41 -3.07" stroke="#000000" stroke-width="1" fill="none"></path></g></g><g transform="translate(3281.4840594787065 851.1899196226881) rotate(0 39.5 17.5)"><text x="0" y="25" font-family="Virgil, Segoe UI Emoji" font-size="28px" fill="#000000" text-anchor="start" style="white-space: pre;" direction="ltr">office</text></g><g stroke-linecap="round" transform="translate(2845.8734718543733 824.1899196226881) rotate(0 137.27393191991155 207.4257022664042)"><path d="M0.32 -0.21 C94.6 2.44, 189.85 1.18, 273.6 0.15 M0.05 -0.35 C103.62 2.11, 207.55 1.22, 274.96 0.27 M275.14 1 C274.98 159.04, 274.17 319.74, 274.39 414.07 M274.22 -0.37 C276.94 126.12, 276.49 253.44, 274.38 415.11 M273.41 413.97 C165.14 416.16, 53.88 415.28, -0.48 415.02 M274.77 414.67 C194.43 413.12, 114.85 412.74, 0.46 415.26 M0.33 415.91 C0.86 284.67, 2.37 154.17, -0.92 0.25 M-0.46 415.32 C1.66 302.64, 1.15 191.43, -0.07 0.34" stroke="#000000" stroke-width="1" fill="none"></path></g><g stroke-linecap="round"><g transform="translate(2844.598979298368 901.1020749923573) rotate(0 138.25551738438895 1.126374214887619)"><path d="M0.54 -0.54 C46.56 -0.22, 231.28 2.17, 277.15 2.8 M-0.64 1.78 C45.17 1.68, 229.91 1.09, 276.37 1.05" stroke="#000000" stroke-width="1" fill="none"></path></g></g><g transform="translate(2957.3172352244906 849.6240116165857) rotate(0 36.5 17.5)"><text x="0" y="25" font-family="Virgil, Segoe UI Emoji" font-size="28px" fill="#000000" text-anchor="start" style="white-space: pre;" direction="ltr">admin</text></g><g stroke-linecap="round" transform="translate(2480.5235962405313 826.8920965459577) rotate(0 169.9764141216981 210.91041612098272)"><path d="M0.87 -0.4 C128.13 -1.01, 258.02 -0.79, 341.03 -1.18 M0.57 0.41 C69.56 0.27, 140.35 0.79, 339.93 0.34 M340.54 0.45 C342.27 140.08, 340.77 279.04, 338.96 422.15 M340.31 0.17 C337.82 108.57, 337.54 216.83, 340.03 421.81 M338.96 423.02 C240.67 419.83, 143.93 418.85, -0.11 420.61 M340.08 421.22 C207.77 419.87, 74.87 420.42, -0.51 421.37 M0.17 422.03 C1 271.25, 1.09 120.46, 0.49 -0.84 M-0.17 421.37 C0.24 278.58, -0.63 136.27, 0.16 0.15" stroke="#000000" stroke-width="1" fill="none"></path></g><g stroke-linecap="round"><g transform="translate(2483.488233073587 916.1162221235179) rotate(0 168.0086476066117 1.4087362268695074)"><path d="M-0.89 0.64 C54.85 1.2, 278.74 2.62, 334.68 2.88 M0.84 -0.07 C56.94 0.21, 280.85 1.25, 336.91 1.28" stroke="#000000" stroke-width="1" fill="none"></path></g></g><g transform="translate(2588.7900129689224 850.992629003355) rotate(0 37.5 17.5)"><text x="0" y="25" font-family="Virgil, Segoe UI Emoji" font-size="28px" fill="#000000" text-anchor="start" style="white-space: pre;" direction="ltr">users</text></g><g stroke-linecap="round" transform="translate(3427.9389282244115 240.97537038687506) rotate(0 142.49546023558497 201.35228076767427)"><path d="M-0.05 -0.33 C61.17 2.74, 120.26 2.31, 284.76 -1.22 M-0.06 -0.3 C60.9 1.36, 121.97 0.75, 285.14 0.19 M285.08 -0.94 C287.85 121.36, 288 244.42, 284.71 402.73 M285.01 -0.55 C283.33 84.88, 282.62 169.08, 284.49 402.98 M284.81 402.3 C186.8 404.51, 89.62 403.98, 0.38 401.76 M285.3 402.11 C182.83 401.91, 79 401.66, 0.61 402.4 M-0.81 403.02 C3.15 300.31, 1.6 198.26, -0.22 -0.72 M-0.5 402.48 C1.16 256.91, 2 110.65, -0.08 -0.36" stroke="#000000" stroke-width="1" fill="none"></path></g><g stroke-linecap="round"><g transform="translate(3428.307268272428 356.70962422214046) rotate(0 143.0545348448539 -0.3116703908890486)"><path d="M-1 0.54 C46.95 0.15, 239.14 -1.24, 287.11 -1.16 M0.68 -0.22 C48.62 0, 239.12 -0.14, 286.74 -0.24" stroke="#000000" stroke-width="1" fill="none"></path></g></g><g transform="translate(3510.5148970724113 282.383009767586) rotate(0 61.5 17.5)"><text x="0" y="25" font-family="Virgil, Segoe UI Emoji" font-size="28px" fill="#000000" text-anchor="start" style="white-space: pre;" direction="ltr">customer</text></g><g stroke-linecap="round" transform="translate(3814.3057264864538 290.37284944296397) rotate(0 196.21286956909898 254.02449536440804)"><path d="M-1.1 0.78 C125.93 -3.23, 253.69 -2.17, 393.49 0.39 M-0.56 0.35 C104.49 -1.12, 208.53 -1.44, 391.97 0.02 M391.87 0.19 C392.17 196.5, 390.81 393.33, 393.01 508.45 M392.44 0.32 C393.74 201.64, 393.64 403.95, 392.79 508.33 M393.47 508.24 C295.25 508.24, 197.17 509.79, -0.44 507.37 M392.24 507.76 C285.41 507.58, 178.19 508.29, -0.01 507.91 M0.3 508.77 C1.14 355.3, 1.49 201.19, -0.28 0.71 M0.34 507.77 C-0.03 331.32, 0.68 155.37, -0.39 0.2" stroke="#000000" stroke-width="1" fill="none"></path></g><g stroke-linecap="round"><g transform="translate(3814.3057264864538 399.8544830827108) rotate(0 194.6719285536676 0.7327135887383207)"><path d="M-0.54 0.11 C64.48 0.5, 325.07 0.97, 389.89 1.19 M1.37 -0.87 C66.36 -0.25, 325.18 1.78, 389.52 2.34" stroke="#000000" stroke-width="1" fill="none"></path></g></g><g transform="translate(3856.757788510029 323.2935495742841) rotate(0 108.5 17.5)"><text x="0" y="25" font-family="Virgil, Segoe UI Emoji" font-size="28px" fill="#000000" text-anchor="start" style="white-space: pre;" direction="ltr">customer_order</text></g><g stroke-linecap="round" transform="translate(1470.5890801340797 211.63200954563928) rotate(0 194.38575768689736 204.4401934293231)"><path d="M-0.39 0.21 C142.74 -1.08, 286.55 0.25, 388.02 0.89 M0.08 0.19 C95.23 0.06, 191 0.44, 388.93 -0.27 M387.9 0.03 C389.47 138.78, 387.89 276.67, 389.51 408.5 M388.27 -0.17 C390.87 150.06, 390.33 300.89, 389.29 408.53 M388.18 410.03 C301.57 410.33, 213.57 411.46, 0.49 408.99 M388.72 409.19 C245.43 407.68, 101.43 407.72, 0.42 408.7 M0.09 408.69 C-2.54 246.69, -1.19 85.28, 0.31 -0.39 M-0.13 408.34 C0.43 251.09, 1.18 93.67, 0.37 0.34" stroke="#000000" stroke-width="1" fill="none"></path></g><g stroke-linecap="round"><g transform="translate(1468.2007023491094 323.19390350816013) rotate(0 194.884510302582 1.8789034893097636)"><path d="M1.01 1 C65.94 1.21, 325.04 1.89, 389.69 1.91 M0.08 0.48 C64.92 0.8, 324.53 3.05, 389.22 3.28" stroke="#000000" stroke-width="1" fill="none"></path></g></g><g transform="translate(1611.6592979902366 248.86728905360582) rotate(0 50.5 17.5)"><text x="0" y="25" font-family="Virgil, Segoe UI Emoji" font-size="28px" fill="#000000" text-anchor="start" style="white-space: pre;" direction="ltr">complex</text></g><g stroke-linecap="round" transform="translate(2016.533222934433 168.4871506850689) rotate(0 221.19758633336608 249.12657450677082)"><path d="M0.65 0.91 C149.02 0.75, 296.3 1.05, 442.28 0.64 M0.41 -0.25 C149.24 1.32, 298.21 1.89, 442.13 -0.33 M442.14 0.35 C441.39 176.57, 440.96 352.63, 443.15 497.84 M442.74 0.12 C443.08 155.14, 442.93 309.88, 442.04 498.44 M441.58 499.19 C273.85 498.01, 104.13 497.49, -0.94 497.35 M442.44 497.91 C297.98 496.34, 153.49 496.76, 0.09 498.28 M0.75 498.64 C-2.24 390.2, -1.92 283.61, -0.14 -0.36 M-0.37 498.37 C-1.18 314.58, -1.44 130.37, 0.18 -0.17" stroke="#000000" stroke-width="1" fill="none"></path></g><g stroke-linecap="round"><g transform="translate(2016.533222934433 297.69204152897424) rotate(0 220.9827022030819 2.3624661057283163)"><path d="M-1 -0.8 C72.73 0.2, 369.24 4.68, 442.97 5.53 M0.67 1.39 C74.25 2.13, 368.47 3.28, 442.32 3.96" stroke="#000000" stroke-width="1" fill="none"></path></g></g><g transform="translate(2195.2787472442237 217.238117526213) rotate(0 43 17.5)"><text x="0" y="25" font-family="Virgil, Segoe UI Emoji" font-size="28px" fill="#000000" text-anchor="start" style="white-space: pre;" direction="ltr">cinema</text></g><g stroke-linecap="round" transform="translate(2535.366965287842 165.88252877227546) rotate(0 198.23535615256594 250.77966742192075)"><path d="M0.07 0.53 C100.83 -0.55, 202.81 -1.04, 395.63 0.68 M0.4 -0.08 C96.61 0.26, 192.09 1, 395.93 -0.2 M396.54 0.73 C395.06 153.03, 394.24 305.74, 396.92 501.86 M396.13 -0.15 C396.55 147.85, 396.49 295.05, 396.19 501.92 M397.1 502.25 C300.76 501.26, 205.99 500.68, -0.24 501.84 M396.81 501.17 C296.42 499.98, 195.53 499.25, -0.09 501.81 M0.47 501.72 C-0.65 354.37, -1.28 206.24, 0.58 0.52 M0.18 501.33 C1.56 376.58, 1.22 251.88, -0.32 0.2" stroke="#000000" stroke-width="1" fill="none"></path></g><g stroke-linecap="round"><g transform="translate(2535.366965287842 290.0781735907505) rotate(0 197.5230727040635 4.30024064559791)"><path d="M-0.89 1.05 C65.19 2.58, 329.87 7.09, 395.93 8.05 M0.85 0.55 C66.77 1.85, 328.53 5.16, 394.7 6.39" stroke="#000000" stroke-width="1" fill="none"></path></g></g><g transform="translate(2695.388276880877 215.48035118151296) rotate(0 35 17.5)"><text x="0" y="25" font-family="Virgil, Segoe UI Emoji" font-size="28px" fill="#000000" text-anchor="start" style="white-space: pre;" direction="ltr">movie</text></g><g stroke-linecap="round" transform="translate(3001.100633357123 170.65928434221678) rotate(0 164.79806716297662 183.90508944274188)"><path d="M0.84 -1.09 C80.54 1, 159.39 -0.97, 329.8 -0.25 M0.61 0.31 C87.8 0.82, 175.11 0.33, 329.15 0.39 M328.93 -0.62 C332.16 106.76, 330.64 215.34, 328.84 368.08 M330.1 0.26 C330.42 147.45, 330.59 293.75, 330.02 368.34 M329.59 367.15 C225.81 368.01, 121.74 366.78, -1.05 369.02 M329.06 368.03 C205.98 368.91, 83.27 368.1, -0.07 368.29 M0.5 368.12 C0.17 246.7, 2.36 127.36, 1.11 -1.06 M0.45 368.14 C0.22 239.75, 0.51 112.24, -0.41 0.42" stroke="#000000" stroke-width="1" fill="none"></path></g><g stroke-linecap="round"><g transform="translate(3003.4890111420937 280.5246624508678) rotate(0 163.49577992367682 0.5874289781020252)"><path d="M-1.18 -0.22 C53.05 0.2, 271.3 1.25, 326.06 1.49 M0.41 -1.39 C54.93 -0.74, 273.78 2, 328.17 2.56" stroke="#000000" stroke-width="1" fill="none"></path></g></g><g transform="translate(3125.2962781755987 205.92684004163027) rotate(0 46.5 17.5)"><text x="0" y="25" font-family="Virgil, Segoe UI Emoji" font-size="28px" fill="#000000" text-anchor="start" style="white-space: pre;" direction="ltr">seance</text></g><g stroke-linecap="round" transform="translate(1491.9505861926154 1459.4061125725211) rotate(0 204.37494677852095 249.31603455180823)"><path d="M0.81 0.27 C154.76 -1.13, 309.69 -1.63, 408.99 -0.74 M-0.31 0.06 C145.96 -2.67, 291.59 -1.82, 408.73 -0.34 M409.34 0.45 C409.31 171.43, 409.78 341.3, 409.47 498.23 M408.76 0.39 C410.97 179.06, 410.55 357.49, 409.15 498.54 M408.2 497.63 C268.57 495.74, 129.93 495.66, 0 498.93 M409.29 498.44 C321.65 496.9, 234.75 496.67, 0.37 498.57 M-0.54 498.78 C-2.25 399.04, -1.07 299.57, 0.71 0.63 M0.03 498.49 C0.68 384.42, 0.93 269.56, -0.03 -0.2" stroke="#000000" stroke-width="1" fill="none"></path></g><g stroke-linecap="round"><g transform="translate(1487.9557584114914 1576.6805646018224) rotate(0 205.24858842029454 0.12871124139053336)"><path d="M0.62 0.02 C69.02 -0.17, 342.82 -0.28, 411.01 -0.17 M-0.51 -1.02 C67.69 -1.1, 341.37 1.33, 410.12 1.27" stroke="#000000" stroke-width="1" fill="none"></path></g></g><g transform="translate(1637.04571160538 1499.4084590073198) rotate(0 41 17.5)"><text x="0" y="25" font-family="Virgil, Segoe UI Emoji" font-size="28px" fill="#000000" text-anchor="start" style="white-space: pre;" direction="ltr">ticket</text></g><g stroke-linecap="round" transform="translate(2091.166056188925 1455.411284791397) rotate(0 212.93515397343276 145.2719147139568)"><path d="M-0.98 0.61 C165.69 -0.62, 332.93 -0.54, 426.29 0.08 M-0.06 -0.26 C147.99 -1.79, 295.62 -1.04, 426.17 -0.21 M424.5 1.3 C429.37 61.6, 427.47 123.31, 427.18 289.4 M426.09 0.23 C426.74 82.49, 426.38 166.38, 426.39 290.75 M426.43 289.88 C271.82 291.36, 118.89 292.98, -1 291.48 M426.36 290.26 C329.2 291.79, 232.58 292.27, 0.35 290.04 M-1.26 291.81 C1.87 224.62, 1.09 154.62, -1 -1.46 M-0.75 290.91 C-0.2 232.91, -0.08 174.17, 0.01 -0.09" stroke="#000000" stroke-width="1" fill="none"></path></g><g stroke-linecap="round"><g transform="translate(2087.171228407801 1571.8299093717028) rotate(0 212.51857051472604 3.779968364575268)"><path d="M-1.17 -1.2 C70.06 0.4, 355.24 7.03, 426.21 8.76 M0.41 0.79 C71.62 2.07, 354.35 5.68, 425.44 6.74" stroke="#000000" stroke-width="1" fill="none"></path></g></g><g transform="translate(2221.423940094999 1499.1231831909877) rotate(0 88 17.5)"><text x="0" y="25" font-family="Virgil, Segoe UI Emoji" font-size="28px" fill="#000000" text-anchor="start" style="white-space: pre;" direction="ltr">ticket_order</text></g><g stroke-linecap="round" transform="translate(2733.9231122271385 1447.0469870289621) rotate(0 225.7754647658005 315.4136122731258)"><path d="M-0.85 0.93 C166.65 -0.19, 333.24 0.65, 450.86 0.7 M-0.26 -0.46 C92.44 1.67, 185.34 1.42, 451.94 0.37 M452.32 -0.51 C452.69 214.85, 453.52 429.5, 451.3 630.45 M451.91 -0.2 C453.69 203.46, 453.47 406.57, 451.36 630.72 M452.04 630.93 C278.75 631.1, 106.72 631.99, 0.55 629.93 M451.6 630.75 C299.85 632.4, 148.48 631.68, -0.02 631.05 M0.31 631.42 C1.1 454.97, -0.34 279.39, 0.24 -0.38 M-0.23 630.93 C-0.11 458.05, -0.02 285.73, 0.17 0.01" stroke="#000000" stroke-width="1" fill="none"></path></g><g stroke-linecap="round"><g transform="translate(2734.0393559612685 1578.678461668624) rotate(0 225.5279618647682 0.45065115141716205)"><path d="M-0.57 -0.32 C74.72 0.03, 376.38 1.97, 451.62 2.44 M1.34 -1.53 C76.47 -1.6, 375.98 -0.44, 450.71 0.47" stroke="#000000" stroke-width="1" fill="none"></path></g></g><g transform="translate(2844.0378251453903 1495.5567523106008) rotate(0 112 17.5)"><text x="0" y="25" font-family="Virgil, Segoe UI Emoji" font-size="28px" fill="#000000" text-anchor="start" style="white-space: pre;" direction="ltr">ticket_category</text></g><g stroke-linecap="round" transform="translate(1486.4285501699471 767.432532519476) rotate(0 220.9361942491804 242.2545989574346)"><path d="M-0.19 -0.91 C126.58 2.43, 250.69 1.16, 441.49 -0.77 M-0.39 0.28 C104.7 1.03, 209.16 1.06, 442.28 -0.19 M441.11 -0.06 C442.09 183.38, 441.98 366.98, 441.77 484.49 M441.82 0.34 C443.66 181.29, 443.64 362.12, 441.98 484.09 M442.26 484.9 C277.46 485.61, 113.57 484.4, -0.08 483.87 M441.68 484.26 C291.5 484.43, 141.1 484.55, -0.21 484.09 M0.28 485.02 C-0.68 339.93, 0.16 193.42, -0.37 0.17 M-0.26 484.54 C-1.16 361.61, -0.87 238.73, -0.15 0.15" stroke="#000000" stroke-width="1" fill="none"></path></g><g stroke-linecap="round"><g transform="translate(1482.5524765866282 922.4754758522341) rotate(0 223.65163355515224 0.016768374647938344)"><path d="M0.97 0.23 C75.02 0.3, 370.8 -0.39, 444.97 -0.53 M0.02 -0.7 C74.39 -0.39, 373.06 0.54, 447.28 0.74" stroke="#000000" stroke-width="1" fill="none"></path></g></g><g transform="translate(1695.7365236691708 832.4540041858551) rotate(0 31.5 17.5)"><text x="0" y="25" font-family="Virgil, Segoe UI Emoji" font-size="28px" fill="#000000" text-anchor="start" style="white-space: pre;" direction="ltr">rate</text></g><g stroke-linecap="round" transform="translate(2065.09615263663 779.9851466840762) rotate(0 173.09945527536536 236.65941150928847)"><path d="M-0.48 0.69 C83.07 -1.2, 168.35 -1, 347.33 1.06 M0.62 -0.14 C73.66 0.1, 147.65 0.54, 345.96 0.01 M346.21 -0.28 C347.27 161.09, 347.32 322.97, 346.87 472.91 M346.62 0.11 C345.97 171.88, 345.61 342.88, 346.18 473.14 M345.66 473.85 C232.4 475.29, 117.86 475.74, 0.28 473.36 M346.19 473.56 C252.51 472.84, 159.7 472.58, -0.22 472.87 M0.24 473.38 C-1.28 351.26, -2.23 229.61, 0.58 -0.83 M0.09 473.07 C0.02 305.79, 0.03 138.8, -0.25 -0.12" stroke="#000000" stroke-width="1" fill="none"></path></g><g stroke-linecap="round"><g transform="translate(2065.09615263663 920.6284540953105) rotate(0 173.28849584704005 2.709558784959057)"><path d="M0.78 -1.12 C58.71 -0.31, 289.21 4.02, 346.84 5.15 M-0.27 0.9 C57.62 1.88, 288.52 5.51, 346.23 6.54" stroke="#000000" stroke-width="1" fill="none"></path></g></g><g transform="translate(2186.806707127121 832.3974424123383) rotate(0 54.5 17.5)"><text x="0" y="25" font-family="Virgil, Segoe UI Emoji" font-size="28px" fill="#000000" text-anchor="start" style="white-space: pre;" direction="ltr">payment</text></g><g transform="translate(3815.022260170126 1268.498331401379) rotate(0 337 22.5)"><text x="0" y="32" font-family="Virgil, Segoe UI Emoji" font-size="36px" fill="#364fc7" text-anchor="start" style="white-space: pre;" direction="ltr">MODELE CONCEPTUEL DE DONNEES</text></g><g stroke-linecap="round"><g transform="translate(3816.765770522037 1460.4510773241389) rotate(0 101.27339232457712 0.646777883389575)"><path d="M-1.19 -0.56 C32.87 -0.41, 169.56 0.06, 203.74 0.31 M0.39 1.76 C34.3 2.11, 168.76 1.4, 202.51 1.47" stroke="#087f5b" stroke-width="1" fill="none"></path></g></g><g transform="translate(4099.422429267067 1430.0410202630526) rotate(0 67.5 22.5)"><text x="0" y="32" font-family="Virgil, Segoe UI Emoji" font-size="36px" fill="#087f5b" text-anchor="start" style="white-space: pre;" direction="ltr">relation</text></g><g stroke-linecap="round"><g transform="translate(3811.965841832395 1565.8145983608326) rotate(0 112.80064246479367 0.06041462369262263)"><path d="M-0.27 -0.65 C37.16 -0.69, 185.99 0.18, 223.64 0.4 M1.79 1.63 C39.67 1.16, 188.59 -1.02, 225.87 -1.51" stroke="#c92a2a" stroke-width="1" fill="none"></path></g></g><g transform="translate(4096.428089814623 1531.8485616461658) rotate(0 94 22.5)"><text x="0" y="32" font-family="Virgil, Segoe UI Emoji" font-size="36px" fill="#c92a2a" text-anchor="start" style="white-space: pre;" direction="ltr">cardinalité</text></g><g stroke-linecap="round"><g transform="translate(1720.1678922252786 57.85877786372919) rotate(0 289.02505353657733 -0.9431901489139705)"><path d="M-0.14 -1.16 C96.45 -1.48, 483.1 -2.67, 579.72 -2.73 M-1.67 0.84 C94.84 0.77, 482.56 -0.72, 579.4 -1.44" stroke="#087f5b" stroke-width="1" fill="none"></path></g></g><g stroke-linecap="round"><g transform="translate(1718.098751171936 56.71262101891159) rotate(0 -1.3343400587693282 77.70503754224754)"><path d="M0.3 0.3 C-0.37 26.06, -2.45 128.94, -2.96 154.57 M-1.01 -0.59 C-1.39 25.35, -0.85 130.07, -0.72 156" stroke="#087f5b" stroke-width="1" fill="none"></path></g></g><g stroke-linecap="round"><g transform="translate(2297.9280127325255 56.71262101891159) rotate(0 -0.4452581673022351 55.340017747057374)"><path d="M-0.04 -0.96 C0.21 17.8, 0.67 93.02, 0.64 111.64 M-1.53 1.16 C-1.29 19.6, -0.05 91.2, 0.02 109.62" stroke="#087f5b" stroke-width="1" fill="none"></path></g></g><g stroke-linecap="round"><g transform="translate(2740.613066055865 164.84220258389104) rotate(0 -0.5449953391402858 -52.13585268108426)"><path d="M-0.24 0.61 C-0.25 -16.47, 0.7 -85.64, 0.73 -102.92 M-1.82 -0.12 C-2 -17.53, 0.01 -87.94, 0.17 -104.88" stroke="#087f5b" stroke-width="1" fill="none"></path></g></g><g stroke-linecap="round"><g transform="translate(2742.720062048522 61.59939894370666) rotate(0 226.93559330714027 -1.8002638896517453)"><path d="M-0.66 -0.64 C75.06 -1.3, 378.75 -2.88, 454.53 -3.5 M1.19 1.64 C76.69 0.6, 377.41 -4.45, 453.28 -5.25" stroke="#087f5b" stroke-width="1" fill="none"></path></g></g><g stroke-linecap="round"><g transform="translate(3195.724200469739 57.38540695839305) rotate(0 -0.6147617755066221 56.459319626067526)"><path d="M0.75 -0.13 C0.53 18.57, -0.96 94.16, -1.4 113.02 M-0.31 -1.24 C-0.63 17.52, -1.61 94.96, -1.98 114.16" stroke="#087f5b" stroke-width="1" fill="none"></path></g></g><g stroke-linecap="round"><g transform="translate(3602.2766910186006 116.43617156878327) rotate(0 199.76889805047938 -1.8146286904442093)"><path d="M-1.13 0.62 C65.75 -0.29, 333.64 -3.55, 400.66 -4.25 M0.48 -0.11 C67.2 -0.38, 332.8 -2.81, 399.42 -3.2" stroke="#087f5b" stroke-width="1" fill="none"></path></g></g><g stroke-linecap="round"><g transform="translate(3602.2766910186 113.12016199596394) rotate(0 1.1105719782042343 65.01624287026954)"><path d="M-0.8 1.02 C-0.13 22.48, 2.43 107.03, 3.02 128.44 M0.99 0.51 C1.56 22.12, 1.81 107.79, 1.91 129.52" stroke="#087f5b" stroke-width="1" fill="none"></path></g></g><g stroke-linecap="round"><g transform="translate(4000.1978397569237 109.80415242314456) rotate(0 0.44057958842222433 89.83800740809568)"><path d="M0.73 0.08 C1.09 29.77, 1.34 149.27, 1.17 179.06 M-0.34 -0.92 C0.05 28.89, 0.97 150.43, 0.84 180.6" stroke="#087f5b" stroke-width="1" fill="none"></path></g></g><g stroke-linecap="round"><g transform="translate(1850.4366390497867 1304.2018606010395) rotate(0 908.1489188643385 4.809766772710589)"><path d="M0.76 0.2 C303.64 1.66, 1514.28 7.27, 1816.6 8.81 M-0.3 -0.74 C302.57 0.92, 1513.28 8.99, 1816.18 10.36" stroke="#087f5b" stroke-width="1" fill="none"></path></g></g><g stroke-linecap="round"><g transform="translate(1723.188771737952 705.0326740878116) rotate(0 257.3453213883196 -0.33691604521125385)"><path d="M0.01 0.69 C86.01 0.61, 429.95 0.31, 516.13 0.26 M-1.44 0.01 C84.34 -0.47, 428.54 -1.13, 514.88 -1.37" stroke="#087f5b" stroke-width="1" fill="none"></path></g></g><g stroke-linecap="round"><g transform="translate(2235.637618941272 704.3395990847092) rotate(0 0.7555376288026565 38.194163536816234)"><path d="M1.14 -0.02 C1.19 12.67, 1.4 63.36, 1.04 76.17 M0.28 -1.07 C0.2 11.77, 0.47 64.24, 0.63 77.46" stroke="#087f5b" stroke-width="1" fill="none"></path></g></g><g stroke-linecap="round"><g transform="translate(1724.6288572689039 704.3395990847092) rotate(0 -0.8557054646819893 32.47618696708177)"><path d="M-0.1 -0.71 C-0.23 9.87, -0.21 53.47, 0.01 64.04 M-1.61 1.53 C-1.96 12.29, -1.38 55.35, -0.94 65.66" stroke="#087f5b" stroke-width="1" fill="none"></path></g></g><g stroke-linecap="round"><g transform="translate(2647.2370791766552 784.5520196724598) rotate(0 176.27287632105896 0.7226278056577797)"><path d="M0.18 0.26 C59.17 0.8, 294.56 1.77, 353.73 2.1 M-1.18 -0.66 C57.64 -0.33, 293.24 0.28, 352.61 0.47" stroke="#087f5b" stroke-width="1" fill="none"></path></g></g><g stroke-linecap="round"><g transform="translate(2650.583999000699 787.1650033800665) rotate(0 -0.4763048441659379 19.777069778308544)"><path d="M0.36 -0.3 C0.23 6.57, -0.37 34.28, -0.87 41.06 M-0.91 -1.51 C-1.11 5, -1.41 31.97, -1.28 39.14" stroke="#087f5b" stroke-width="1" fill="none"></path></g></g><g stroke-linecap="round"><g transform="translate(2999.18126405827 786.0250198916897) rotate(0 -0.760511013320297 18.914460907793384)"><path d="M-0.02 0.73 C-0.07 7.14, -0.38 31.52, -0.4 37.76 M-1.49 0.07 C-1.61 6.15, -1.08 29.73, -0.88 35.74" stroke="#087f5b" stroke-width="1" fill="none"></path></g></g><g stroke-linecap="round"><g transform="translate(2351.249777117644 706.0865182468802) rotate(0 435.96770049012184 -1.535931954653634)"><path d="M0.45 0.98 C145.63 0.65, 725.44 -1.73, 870.43 -2.23 M-0.78 0.46 C144.85 -0.21, 727.12 -3.32, 872.72 -4.06" stroke="#087f5b" stroke-width="1" fill="none"></path></g></g><g stroke-linecap="round"><g transform="translate(3219.7020062364745 703.2940673493921) rotate(0 -2.969791573751138 -82.15142855611896)"><path d="M0.65 -1.03 C-0.4 -28.5, -5.45 -137.97, -6.59 -165.35 M-0.47 1.05 C-1.14 -26.23, -3.27 -136.57, -4.41 -164.13" stroke="#087f5b" stroke-width="1" fill="none"></path></g></g><g stroke-linecap="round"><g transform="translate(2354.8153800107466 709.6989494360181) rotate(0 -0.11667083705775383 -21.851357346023995)"><path d="M0.77 0.82 C0.63 -6.31, -0.05 -35.05, -0.3 -42.51 M-0.28 0.2 C-0.59 -7.34, -0.79 -37.29, -1.01 -44.52" stroke="#087f5b" stroke-width="1" fill="none"></path></g></g><g stroke-linecap="round" transform="translate(2655.6269249438583 683.7469110669746) rotate(0 185.6979846829654 27.5)"><path d="M0.99 -1.22 C143.56 0.12, 286.01 0.22, 370.26 0.52 M0.14 -0.13 C78.44 -0.1, 155.94 0.62, 371.9 0.61 M371.52 -1.53 C369.6 11.68, 369.95 25.3, 371.01 55.22 M370.77 0.59 C371.28 21.4, 371.25 42.38, 370.97 54.68 M372.35 55.17 C225.51 56.2, 79.86 56.46, -0.23 54.32 M371.58 54.61 C242.34 52.47, 113.09 53.16, 0.56 54.84 M-1.89 55.76 C-0.66 34.03, -0.86 16.5, -1.61 -1 M0.79 55.28 C-0.5 33.78, -0.92 13.58, 0.33 0.5" stroke="#087f5b" stroke-width="1" fill="none"></path></g><g transform="translate(2660.6269249438583 688.7469110669746) rotate(0 180.5 22.5)"><text x="180.5" y="32" font-family="Virgil, Segoe UI Emoji" font-size="36px" fill="#087f5b" text-anchor="middle" style="white-space: pre;" direction="ltr">diffuser</text></g><g transform="translate(2404.30634416992 670.5393619644627) rotate(0 18.5 22.5)"><text x="0" y="32" font-family="Virgil, Segoe UI Emoji" font-size="36px" fill="#c92a2a" text-anchor="start" style="white-space: pre;" direction="ltr">1,n</text></g><g transform="translate(3261.7486108722214 547.9701564138186) rotate(0 18.5 22.5)"><text x="0" y="32" font-family="Virgil, Segoe UI Emoji" font-size="36px" fill="#c92a2a" text-anchor="start" style="white-space: pre;" direction="ltr">1,n</text></g><g stroke-linecap="round" transform="translate(2882.5110061089354 18.012612783021723) rotate(0 110.17342576654778 38.05991071935284)"><path d="M-1.07 -1.3 C87.12 -0.27, 170.61 1.02, 219.25 1.01 M-0.77 -0.11 C81.19 0.07, 161.29 -0.61, 220.28 -0.14 M219.94 -0.41 C220.4 25.31, 221.6 51.36, 220.42 75.38 M219.72 -0.71 C219.29 29.39, 219.22 57.26, 220.25 76.31 M221.97 75.51 C169.89 75.87, 122.05 75.2, -0.26 74.88 M219.7 76.88 C150.25 77.33, 79.34 77.87, 0.51 75.38 M0.8 76.19 C-0.6 53.3, 1.05 31.14, -1.3 -0.59 M0.3 75.3 C-1.31 55.44, -1.63 34.39, 0.79 -0.61" stroke="#087f5b" stroke-width="1" fill="none"></path></g><g transform="translate(2887.5110061089354 33.572523502374565) rotate(0 105 22.5)"><text x="105" y="32" font-family="Virgil, Segoe UI Emoji" font-size="36px" fill="#087f5b" text-anchor="middle" style="white-space: pre;" direction="ltr">obtenir</text></g><g transform="translate(2614.08847787771 110.18288535381407) rotate(0 18.5 22.5)"><text x="0" y="32" font-family="Virgil, Segoe UI Emoji" font-size="36px" fill="#c92a2a" text-anchor="start" style="white-space: pre;" direction="ltr">1,n</text></g><g transform="translate(3259.103806910953 110.18288535381407) rotate(0 18.5 22.5)"><text x="0" y="32" font-family="Virgil, Segoe UI Emoji" font-size="36px" fill="#c92a2a" text-anchor="start" style="white-space: pre;" direction="ltr">1,n</text></g><g stroke-linecap="round" transform="translate(1864.9091826651852 10) rotate(0 150.23648968165594 44.069370306619135)"><path d="M-0.08 0.74 C102.43 -0.26, 203.78 0.3, 301.82 0.75 M0.07 -0.68 C99.03 1.92, 197.85 1.89, 300.12 -0.62 M301.34 -0.05 C302.16 17.02, 299.75 36.73, 301.03 86.22 M299.88 0.42 C299.46 33.76, 300.08 68.37, 300.21 87.63 M301.31 89.48 C197.22 88.73, 95.29 90.27, 0.56 87.35 M300.61 88.65 C232.87 87.65, 166.42 87.54, 0.25 88.63 M-1.23 86.2 C-2.83 65.3, -1.48 40.07, 0.22 1 M0.22 87.18 C-0.2 68.75, -1.16 50.76, -0.65 -0.47" stroke="#087f5b" stroke-width="1" fill="none"></path></g><g transform="translate(1869.9091826651852 31.569370306619135) rotate(0 145 22.5)"><text x="145" y="32" font-family="Virgil, Segoe UI Emoji" font-size="36px" fill="#087f5b" text-anchor="middle" style="white-space: pre;" direction="ltr">disposer</text></g><g transform="translate(1752.7326037028822 150.24594926892223) rotate(0 18.5 22.5)"><text x="0" y="32" font-family="Virgil, Segoe UI Emoji" font-size="36px" fill="#c92a2a" text-anchor="start" style="white-space: pre;" direction="ltr">1,n</text></g><g transform="translate(2357.684868821017 102.17027257079235) rotate(0 18.5 22.5)"><text x="0" y="32" font-family="Virgil, Segoe UI Emoji" font-size="36px" fill="#c92a2a" text-anchor="start" style="white-space: pre;" direction="ltr">1,n</text></g><g stroke-linecap="round"><g transform="translate(3196.6159213912024 56.03509349063762) rotate(0 161.20133814764216 -0.23279845900833607)"><path d="M-0.48 0.5 C53.08 0.45, 267 -0.91, 320.49 -0.97 M1.47 -0.28 C55.51 -0.16, 269.9 -0.24, 322.88 0.06" stroke="#087f5b" stroke-width="1" fill="none"></path></g></g><g stroke-linecap="round"><g transform="translate(3513.7486417766395 56.03509349063762) rotate(0 -0.37711594983295527 92.83552625832397)"><path d="M0.27 0.35 C0.44 31.04, -0.06 154.35, 0.03 185.22 M-1.05 -0.52 C-0.94 30.8, -1.15 155.01, -0.9 186.19" stroke="#087f5b" stroke-width="1" fill="none"></path></g></g><g transform="translate(3458.250415709188 190.67313567372025) rotate(0 18.5 22.5)"><text x="0" y="32" font-family="Virgil, Segoe UI Emoji" font-size="36px" fill="#c92a2a" text-anchor="start" style="white-space: pre;" direction="ltr">1,n</text></g><g stroke-linecap="round"><g transform="translate(2934.9814270732168 591.1965591410626) rotate(0 65.14594619436926 0.5057667698284227)"><path d="M0.64 0.93 C22.53 0.79, 108.93 -0.17, 130.78 -0.23 M-0.49 0.37 C21.29 0.36, 107.83 1.5, 129.81 1.19" stroke="#087f5b" stroke-width="1" fill="none"></path></g></g><g stroke-linecap="round"><g transform="translate(3065.798674232209 591.1965591410626) rotate(0 1.5691291723099994 54.30672405628675)"><path d="M-0.63 -0.89 C-0.24 17.04, 0.93 90.21, 1.56 108.54 M1.24 1.26 C2.07 19.21, 3.53 91.37, 3.77 109.5" stroke="#087f5b" stroke-width="1" fill="none"></path></g></g><g transform="translate(2955.7924306788 609.6697323914996) rotate(0 18.5 22.5)"><text x="0" y="32" font-family="Virgil, Segoe UI Emoji" font-size="36px" fill="#c92a2a" text-anchor="start" style="white-space: pre;" direction="ltr">1,n</text></g><g stroke-linecap="round" transform="translate(3693.2952194755176 84.11784349611378) rotate(0 106.63644890424712 33.57073391430015)"><path d="M-0.49 0.13 C49.43 -3.04, 96.99 -1.38, 211.7 -0.41 M0.2 -0.25 C47.43 1.6, 95.89 1.5, 213.69 -0.67 M211.48 0.58 C212.02 12.6, 214.29 29.89, 211.74 68.66 M213.28 -0.4 C214 25.08, 213.33 49.44, 213.25 67.07 M212.72 65.8 C152.76 69.42, 93.11 67.9, 0.56 66.68 M213.01 67.94 C159.8 67.13, 106.92 67.67, -0.58 66.37 M-0.41 67.27 C-1.67 48.87, -1.32 31.83, -0.96 -1.27 M-0.57 66.91 C-0.73 52.31, 0.9 39.42, -0.46 0.97" stroke="#087f5b" stroke-width="1" fill="none"></path></g><g transform="translate(3698.2952194755176 95.18857741041393) rotate(0 101.5 22.5)"><text x="101.5" y="32" font-family="Virgil, Segoe UI Emoji" font-size="36px" fill="#087f5b" text-anchor="middle" style="white-space: pre;" direction="ltr">être lier</text></g><g stroke-linecap="round"><g transform="translate(3661.699234615 1316.3612530563073) rotate(0 -0.7879940216023442 -336.3227250069314)"><path d="M-0.23 0.72 C-0.28 -111.4, 0.33 -560.97, 0.24 -673.36 M-1.81 0.05 C-2.02 -111.86, -0.43 -560.03, -0.44 -672.16" stroke="#087f5b" stroke-width="1" fill="none"></path></g></g><g stroke-linecap="round" transform="translate(3183.8099635996687 1261.0682795504013) rotate(0 140.2071828185476 47.39397729077666)"><path d="M-1.14 1.52 C106.83 1.16, 214.85 -0.32, 279.87 -1.05 M0.56 -0.52 C109.99 1.04, 221.12 0.96, 280.34 0.02 M281.46 1.64 C278.66 34.05, 280.13 68.23, 278.9 96.08 M279.52 -0.18 C280.2 25.52, 280.2 51.24, 280.39 95.34 M281.59 93.61 C173.35 95.63, 65.16 94.63, 0.52 96.23 M279.75 95.41 C202.43 95.79, 125.09 95.97, 0.57 94.69 M0.94 95.3 C2.17 67.44, -1.17 45.34, -1.51 0.57 M-0.96 94.3 C-1.45 71.11, -1.62 45.07, 0.83 0.19" stroke="#087f5b" stroke-width="1" fill="none"></path></g><g transform="translate(3188.8099635996687 1285.9622568411778) rotate(0 135 22.5)"><text x="135" y="32" font-family="Virgil, Segoe UI Emoji" font-size="36px" fill="#087f5b" text-anchor="middle" style="white-space: pre;" direction="ltr">être lier</text></g><g transform="translate(3594.557766786399 656.5930615232577) rotate(0 18.5 22.5)"><text x="0" y="32" font-family="Virgil, Segoe UI Emoji" font-size="36px" fill="#c92a2a" text-anchor="start" style="white-space: pre;" direction="ltr">1,n</text></g><g transform="translate(1789.6371316293212 1260.8662719806598) rotate(0 18.5 22.5)"><text x="0" y="32" font-family="Virgil, Segoe UI Emoji" font-size="36px" fill="#c92a2a" text-anchor="start" style="white-space: pre;" direction="ltr">1,n</text></g><g stroke-linecap="round"><g transform="translate(1852.829101350357 1249.2197852277068) rotate(0 0.279737731395187 27.970702077082933)"><path d="M-0.66 0.88 C-0.49 10.01, 0.83 45.63, 0.98 54.52 M1.2 0.29 C1.3 9.58, 0.82 46.54, 0.54 55.65" stroke="#087f5b" stroke-width="1" fill="none"></path></g></g><g stroke-linecap="round" transform="translate(1832.122195849342 679.8946673857098) rotate(0 155.5 32.70109812419469)"><path d="M-0.96 0.71 C114.86 -0.72, 228.83 -1.48, 311.33 0.99 M-0.67 -0.68 C107.07 1.81, 213.88 1.7, 311.34 -0.51 M311.86 0.47 C309.32 19.22, 312.62 35.21, 310.98 66.77 M311.33 -0.01 C311.69 23.23, 312.35 47.1, 311.71 65.67 M311.29 65.58 C236.83 66.34, 162.56 66.62, -0.08 65.98 M310.64 65.89 C187.75 64.08, 65.23 63.37, 0.27 64.84 M1.02 67.16 C-0.36 52.43, 1.14 36.27, -1.51 -1.65 M-0.68 65.37 C-1.04 49.34, -0.59 32.92, -0.02 0.09" stroke="#087f5b" stroke-width="1" fill="none"></path></g><g transform="translate(1837.122195849342 690.0957655099045) rotate(0 150.5 22.5)"><text x="150.5" y="32" font-family="Virgil, Segoe UI Emoji" font-size="36px" fill="#087f5b" text-anchor="middle" style="white-space: pre;" direction="ltr">posséder</text></g><g transform="translate(1762.6323623354288 721.1215891030505) rotate(0 18.5 22.5)"><text x="0" y="32" font-family="Virgil, Segoe UI Emoji" font-size="36px" fill="#c92a2a" text-anchor="start" style="white-space: pre;" direction="ltr">1,n</text></g><g transform="translate(2187.7466379499583 721.1215891030505) rotate(0 18.5 22.5)"><text x="0" y="32" font-family="Virgil, Segoe UI Emoji" font-size="36px" fill="#c92a2a" text-anchor="start" style="white-space: pre;" direction="ltr">1,n</text></g><g stroke-linecap="round"><g transform="translate(3123.8155717550285 1141.7976783899585) rotate(0 217.042867837936 0.29257244965060636)"><path d="M0.85 0.22 C73.11 0.24, 362 -0.18, 434.24 -0.16 M-0.16 -0.71 C71.96 -0.48, 361.42 1.47, 433.79 1.29" stroke="#087f5b" stroke-width="1" fill="none"></path></g></g><g stroke-linecap="round"><g transform="translate(3557.1051219006067 1141.7976783899585) rotate(0 -2.6156355081752736 -212.4231064305006)"><path d="M-0.18 -0.76 C-1.07 -71.67, -4.43 -355.59, -5.05 -426.29 M-1.74 1.45 C-2.28 -69.28, -2.37 -354.53, -2.84 -425.38" stroke="#087f5b" stroke-width="1" fill="none"></path></g></g><g stroke-linecap="round"><g transform="translate(3553.0174846350824 720.7710400409534) rotate(0 -80.09045816848243 -2.5504090151444387)"><path d="M0.03 -0.08 C-26.8 -1.05, -133.76 -4.34, -160.21 -5.02 M-1.42 -1.18 C-27.93 -2.09, -131.64 -3.68, -157.91 -3.97" stroke="#087f5b" stroke-width="1" fill="none"></path></g></g><g stroke-linecap="round"><g transform="translate(3397.687268545158 716.683402775429) rotate(0 -0.27567089742984763 -164.06538045528197)"><path d="M0.72 0.17 C0.77 -54.42, -0.05 -272.02, -0.21 -326.47 M-0.37 -0.78 C-0.45 -55.21, -1.14 -273.67, -1.27 -328.3" stroke="#087f5b" stroke-width="1" fill="none"></path></g></g><g stroke-linecap="round"><g transform="translate(3397.687268545158 393.7600587990073) rotate(0 -32.41976519140928 -0.43077280931174755)"><path d="M-0.57 0.33 C-11.41 0.29, -55.42 -1.32, -66.18 -1.19 M1.34 -0.55 C-9.02 -0.4, -52.7 -0.25, -63.87 -0.27" stroke="#087f5b" stroke-width="1" fill="none"></path></g></g><g stroke-linecap="round" transform="translate(3189.217768003418 1105.00894300024) rotate(0 163.50549062097298 36.78873538971891)"><path d="M1.06 -0.09 C83.97 1.62, 166.88 2.81, 327.76 -0.66 M0.12 0.35 C76.89 0.08, 154.94 0.21, 327.04 -0.39 M328.36 0.73 C326.25 24.22, 326.75 50.56, 327.62 72.71 M326.21 0.7 C327.41 23.17, 325.98 45.09, 326.06 74.41 M326.64 74.18 C215.66 73.25, 102.62 74.89, 0.37 74.29 M327.31 73.58 C231.23 73.96, 135.65 74.04, 0.25 73.56 M1.07 73.26 C1.7 56.22, -0.06 40.95, -0.02 -1.1 M-0.3 72.63 C-0.98 48.52, 0.4 24.41, 0.49 -0.38" stroke="#087f5b" stroke-width="1" fill="none"></path></g><g transform="translate(3201.4806797999904 1117.6224038589098) rotate(0 150 22.5)"><text x="0" y="32" font-family="Virgil, Segoe UI Emoji" font-size="36px" fill="#087f5b" text-anchor="start" style="white-space: pre;" direction="ltr">ajouter/ modifier</text></g><g transform="translate(3344.547984093342 328.7084116127155) rotate(0 18.5 22.5)"><text x="0" y="32" font-family="Virgil, Segoe UI Emoji" font-size="36px" fill="#c92a2a" text-anchor="start" style="white-space: pre;" direction="ltr">1,n</text></g><g transform="translate(3131.990846286077 1084.9213057347156) rotate(0 18.5 22.5)"><text x="0" y="32" font-family="Virgil, Segoe UI Emoji" font-size="36px" fill="#c92a2a" text-anchor="start" style="white-space: pre;" direction="ltr">1,n</text></g><g stroke-linecap="round" transform="translate(2694.613658874974 761.6474126961965) rotate(0 59.5 27.5)"><path d="M0.44 -0.81 C45.41 -1, 86.42 -2.69, 119.23 0.16 M0.64 -0.42 C42.31 -0.45, 84.73 -0.21, 118.83 0.94 M117.88 -1.54 C118.02 20.62, 119.19 36.96, 117.93 54.21 M119.01 0.55 C118.46 21.83, 118.71 42.2, 118.43 55.2 M119.85 53.93 C89.22 53.26, 60.4 57.26, 1.22 53.35 M118.03 54.44 C92.08 54.06, 64.11 55.8, -0.6 55.41 M0.01 55.08 C0.98 41.93, 1.99 28.91, 1.66 -0.08 M-0.74 54.05 C0.18 39.34, 0.66 21.47, -0.93 0.03" stroke="#087f5b" stroke-width="1" fill="none"></path></g><g transform="translate(2699.613658874974 766.6474126961965) rotate(0 54.5 22.5)"><text x="54.5" y="32" font-family="Virgil, Segoe UI Emoji" font-size="36px" fill="#087f5b" text-anchor="middle" style="white-space: pre;" direction="ltr">lier</text></g><g transform="translate(2575.120054791198 783.204881880057) rotate(0 18.5 22.5)"><text x="0" y="32" font-family="Virgil, Segoe UI Emoji" font-size="36px" fill="#c92a2a" text-anchor="start" style="white-space: pre;" direction="ltr">1,n</text></g><g transform="translate(3048.2360345249 779.4199540421876) rotate(0 18.5 22.5)"><text x="0" y="32" font-family="Virgil, Segoe UI Emoji" font-size="36px" fill="#c92a2a" text-anchor="start" style="white-space: pre;" direction="ltr">1,n</text></g><g stroke-linecap="round"><g transform="translate(2927.1183437130726 768.9254591771) rotate(0 222.72233822076862 3.103921091295561)"><path d="M-0.49 -0.85 C73.65 -0.02, 371.42 4.8, 445.93 5.89 M1.45 1.32 C75.36 2.21, 371 6.19, 445.14 7.06" stroke="#087f5b" stroke-width="1" fill="none"></path></g></g><g stroke-linecap="round"><g transform="translate(3373.7398285816867 772.7103870149697) rotate(0 0.13554142364301924 32.73537570127404)"><path d="M-0.76 0.79 C-0.64 11.3, 0.78 53.35, 0.76 63.97 M1.04 0.15 C1.06 10.76, 0.13 54.36, 0.21 65.32" stroke="#087f5b" stroke-width="1" fill="none"></path></g></g><g stroke-linecap="round"><g transform="translate(2927.118343713072 768.9254591771) rotate(0 0.07741979934274923 7.252379073915137)"><path d="M0.82 -0.36 C0.67 1.95, 0.27 12.19, 0.18 14.77 M-0.2 -1.6 C-0.6 0.81, -0.65 13.1, -0.67 16.11" stroke="#087f5b" stroke-width="1" fill="none"></path></g></g><g stroke-linecap="round" transform="translate(3174.296554082787 744.0803390853082) rotate(0 79.68540465110573 28.124260465096214)"><path d="M0.69 -1.62 C40.84 0.65, 84.8 -1.99, 160.95 1.8 M-0.69 0.89 C57.24 0.4, 115.3 -1.47, 159.86 -0.74 M161.15 0.85 C159.42 20.81, 157.32 41.23, 160.24 56.84 M159.06 -0.99 C159.15 20.25, 158.39 39.7, 160.08 56.26 M157.82 56.67 C102.11 58.77, 48.62 56.91, -0.74 56.32 M159.48 55.39 C108.4 58.05, 55.75 57, -0.34 57.05 M0 56.34 C-0.58 36.17, 0.5 19.53, -1.83 -1.2 M0.51 55.41 C-0.38 44.92, -0.5 32.46, -0.57 0.74" stroke="#087f5b" stroke-width="1" fill="none"></path></g><g transform="translate(3179.296554082787 749.7045995504044) rotate(0 74.5 22.5)"><text x="74.5" y="32" font-family="Virgil, Segoe UI Emoji" font-size="36px" fill="#087f5b" text-anchor="middle" style="white-space: pre;" direction="ltr">utiliser</text></g><g transform="translate(3387.5721959430994 789.0162367596832) rotate(0 18.5 22.5)"><text x="0" y="32" font-family="Virgil, Segoe UI Emoji" font-size="36px" fill="#c92a2a" text-anchor="start" style="white-space: pre;" direction="ltr">1,n</text></g><g stroke-linecap="round"><g transform="translate(1704.8039831197739 1395.485332919317) rotate(0 650.3670093558206 -2.1545922282106744)"><path d="M0.22 0.39 C217.23 -0.01, 1084.81 -2.49, 1301.86 -3.07 M-1.12 -0.44 C215.71 -1.12, 1083.52 -3.96, 1300.67 -4.7" stroke="#087f5b" stroke-width="1" fill="none"></path></g></g><g stroke-linecap="round"><g transform="translate(1704.8039831197739 1395.485332919317) rotate(0 0.06612972560941444 32.00507480800212)"><path d="M-0.84 0.3 C-0.57 10.91, 0.63 52.81, 0.93 63.35 M0.92 -0.58 C1.18 10.2, 0.51 53.72, 0.47 64.59" stroke="#087f5b" stroke-width="1" fill="none"></path></g></g><g stroke-linecap="round"><g transform="translate(2292.0436669450196 1391.490505138193) rotate(0 0.26076652625575036 31.825341942301748)"><path d="M-0.53 0.3 C-0.61 11, -0.19 53.48, 0.05 64.24 M1.39 -0.59 C1.11 9.72, -0.75 51.69, -0.86 62.29" stroke="#087f5b" stroke-width="1" fill="none"></path></g></g><g stroke-linecap="round"><g transform="translate(3007.4946164886774 1388.8029749739985) rotate(0 -0.45702332933149137 30.378065597951093)"><path d="M0.43 0.58 C0.39 10.62, -0.25 50.89, -0.25 60.92 M-0.8 -0.16 C-1.03 9.51, -1.44 49.48, -1.33 59.32" stroke="#087f5b" stroke-width="1" fill="none"></path></g></g><g stroke-linecap="round"><g transform="translate(2603.531645472223 1309.212831188886) rotate(0 1.5484633375112082 42.87216733866876)"><path d="M-0.92 1.13 C-0.45 15.13, 3.39 71.23, 4.02 85.07 M0.8 0.67 C1.01 14.85, 2.35 69.17, 3.07 83.29" stroke="#087f5b" stroke-width="1" fill="none"></path></g></g><g transform="translate(1630.5283970235912 1401.7710448587748) rotate(0 18.5 22.5)"><text x="0" y="32" font-family="Virgil, Segoe UI Emoji" font-size="36px" fill="#c92a2a" text-anchor="start" style="white-space: pre;" direction="ltr">1,n</text></g><g transform="translate(2213.526211176697 1397.7503702784084) rotate(0 18.5 22.5)"><text x="0" y="32" font-family="Virgil, Segoe UI Emoji" font-size="36px" fill="#c92a2a" text-anchor="start" style="white-space: pre;" direction="ltr">1,n</text></g><g transform="translate(3045.80584931251 1393.729695698042) rotate(0 18.5 22.5)"><text x="0" y="32" font-family="Virgil, Segoe UI Emoji" font-size="36px" fill="#c92a2a" text-anchor="start" style="white-space: pre;" direction="ltr">1,n</text></g><g transform="translate(3636.845012626348 191.5479961685346) rotate(0 18.5 22.5)"><text x="0" y="32" font-family="Virgil, Segoe UI Emoji" font-size="36px" fill="#c92a2a" text-anchor="start" style="white-space: pre;" direction="ltr">1,n</text></g><g transform="translate(4030.87112150224 231.75474197219694) rotate(0 18.5 22.5)"><text x="0" y="32" font-family="Virgil, Segoe UI Emoji" font-size="36px" fill="#c92a2a" text-anchor="start" style="white-space: pre;" direction="ltr">1,n</text></g><g transform="translate(185.57965894254448 481.01358599695243) rotate(0 76 22.5)"><text x="0" y="32" font-family="Virgil, Segoe UI Emoji" font-size="36px" fill="#364fc7" text-anchor="start" style="white-space: pre;" direction="ltr">TERMES</text></g><g stroke-linecap="round" transform="translate(10 595.9055520956477) rotate(0 428.66912551295854 896.9834133181748)"><path d="M0.1 0.06 C260.6 -1.43, 522.68 -0.74, 856.62 0.59 M0.22 -0.03 C194.76 -2.43, 390.09 -2.32, 857.18 0.1 M857.46 -0.41 C856.36 696.62, 856.13 1395.49, 857.84 1793.19 M857.14 0.38 C860.11 620.72, 860.11 1240.96, 857.03 1793.65 M857.52 1794.01 C668.93 1795.43, 479.53 1796.11, 0.35 1793.84 M857.45 1793.9 C587.3 1794.49, 317.09 1793.93, 0.23 1793.86 M-0.33 1794.15 C1.25 1410.28, 1.77 1025.53, -0.45 -0.13 M0.17 1794.07 C-3.89 1284.69, -4.24 774.96, -0.12 0.18" stroke="#364fc7" stroke-width="1" fill="none"></path></g><g transform="translate(91.65126200246777 688.773901432272) rotate(0 167.5 22.5)"><text x="0" y="32" font-family="Virgil, Segoe UI Emoji" font-size="36px" fill="#364fc7" text-anchor="start" style="white-space: pre;" direction="ltr">complex = complexe</text></g><g transform="translate(87.48981528623608 798.6139977807059) rotate(0 125.5 22.5)"><text x="0" y="32" font-family="Virgil, Segoe UI Emoji" font-size="36px" fill="#364fc7" text-anchor="start" style="white-space: pre;" direction="ltr">cinema = salle</text></g><g transform="translate(82.57158072475886 904.9086266777264) rotate(0 103 22.5)"><text x="0" y="32" font-family="Virgil, Segoe UI Emoji" font-size="36px" fill="#364fc7" text-anchor="start" style="white-space: pre;" direction="ltr">movie = film</text></g><g transform="translate(91.27568337625416 1026.766063798667) rotate(0 148.5 22.5)"><text x="0" y="32" font-family="Virgil, Segoe UI Emoji" font-size="36px" fill="#364fc7" text-anchor="start" style="white-space: pre;" direction="ltr">seance = séance</text></g><g transform="translate(91.27568337625416 1166.031706222599) rotate(0 154 22.5)"><text x="0" y="32" font-family="Virgil, Segoe UI Emoji" font-size="36px" fill="#364fc7" text-anchor="start" style="white-space: pre;" direction="ltr">customer = client</text></g><g transform="translate(93.20843212011823 1285.692311535964) rotate(0 274.5 22.5)"><text x="0" y="32" font-family="Virgil, Segoe UI Emoji" font-size="36px" fill="#364fc7" text-anchor="start" style="white-space: pre;" direction="ltr">customer_order = ordre_client</text></g><g transform="translate(96.71733840992829 1411.9420882407421) rotate(0 112 22.5)"><text x="0" y="32" font-family="Virgil, Segoe UI Emoji" font-size="36px" fill="#364fc7" text-anchor="start" style="white-space: pre;" direction="ltr">rate = tarif</text></g><g transform="translate(90.0466001267705 1523.4593732070439) rotate(0 173 22.5)"><text x="0" y="32" font-family="Virgil, Segoe UI Emoji" font-size="36px" fill="#364fc7" text-anchor="start" style="white-space: pre;" direction="ltr">payment = paiement</text></g><g transform="translate(93.94060010758221 1640.2793726313862) rotate(0 304 22.5)"><text x="0" y="32" font-family="Virgil, Segoe UI Emoji" font-size="36px" fill="#364fc7" text-anchor="start" style="white-space: pre;" direction="ltr">* users = utilisateurs (complexes)</text></g><g transform="translate(97.83460008839347 1753.2053720749172) rotate(0 364 22.5)"><text x="0" y="32" font-family="Virgil, Segoe UI Emoji" font-size="36px" fill="#364fc7" text-anchor="start" style="white-space: pre;" direction="ltr">* admin = administrateur (commanditaire)</text></g><g transform="translate(97.83460008839347 1862.2373715376366) rotate(0 139 22.5)"><text x="0" y="32" font-family="Virgil, Segoe UI Emoji" font-size="36px" fill="#364fc7" text-anchor="start" style="white-space: pre;" direction="ltr">office = bureau</text></g><g transform="translate(97.76858146942004 1977.7130957117483) rotate(0 133.5 22.5)"><text x="0" y="32" font-family="Virgil, Segoe UI Emoji" font-size="36px" fill="#364fc7" text-anchor="start" style="white-space: pre;" direction="ltr">ticket = ticket</text></g><g transform="translate(91.35559842149041 2110.4827602641185) rotate(0 254.5 22.5)"><text x="0" y="32" font-family="Virgil, Segoe UI Emoji" font-size="36px" fill="#364fc7" text-anchor="start" style="white-space: pre;" direction="ltr">ticket_order = ordre_ticket</text></g><g transform="translate(91.35559842149041 2256.5108604009115) rotate(0 322.5 22.5)"><text x="0" y="32" font-family="Virgil, Segoe UI Emoji" font-size="36px" fill="#364fc7" text-anchor="start" style="white-space: pre;" direction="ltr">ticket_category = catégorie_ticket</text></g><g transform="translate(1115.9706800419858 2218.6302743791275) rotate(0 1284.5 22.5)"><text x="0" y="32" font-family="Virgil, Segoe UI Emoji" font-size="36px" fill="#364fc7" text-anchor="start" style="white-space: pre;" direction="ltr">* note : admin est l'administrateur et le commanditaire de tout les complexes et les users sont les utilisateurs gérants de chaque complexes </text></g><g stroke-linecap="round" transform="translate(3797.761422753654 1367.8002780468746) rotate(0 313.77418890150284 167.52350763385323)"><path d="M-0.42 0.47 C218.86 -0.25, 437.95 -1.53, 627.82 -0.25 M-0.15 0.31 C126.8 -1.96, 254.39 -2.08, 627.44 0.1 M627.77 -0.21 C629.1 129.57, 628.85 258.65, 627.07 334.81 M627.82 0.13 C627.46 96.21, 628.39 192.34, 627.9 335.71 M627.28 335.81 C484.49 333.28, 341.69 333.23, 0.26 334.33 M627.39 335.34 C423.75 335.48, 220.3 335.62, 0.37 334.81 M-0.66 333.79 C1.95 242.73, 2.06 149.75, 0.17 1.21 M0.07 334.86 C-0.35 247.12, -0.22 160.25, 0.08 0.6" stroke="#364fc7" stroke-width="1" fill="none"></path></g><g transform="translate(1504.8685455005643 346.3391255997091) rotate(0 14.5 22.5)"><text x="0" y="32" font-family="Virgil, Segoe UI Emoji" font-size="36px" fill="#000000" text-anchor="start" style="white-space: pre;" direction="ltr">id</text></g><g transform="translate(1504.8685455005643 393.48567227837043) rotate(0 121 22.5)"><text x="0" y="32" font-family="Virgil, Segoe UI Emoji" font-size="36px" fill="#000000" text-anchor="start" style="white-space: pre;" direction="ltr">name_complex</text></g><g transform="translate(1506.5523507390878 462.5216870578387) rotate(0 149 22.5)"><text x="0" y="32" font-family="Virgil, Segoe UI Emoji" font-size="36px" fill="#000000" text-anchor="start" style="white-space: pre;" direction="ltr">address_complex</text></g><g transform="translate(1506.5523507390878 529.8738965987833) rotate(0 81.5 22.5)"><text x="0" y="32" font-family="Virgil, Segoe UI Emoji" font-size="36px" fill="#000000" text-anchor="start" style="white-space: pre;" direction="ltr">Zip_code</text></g><g transform="translate(2067.2594951674523 349.70673607675633) rotate(0 14.5 22.5)"><text x="0" y="32" font-family="Virgil, Segoe UI Emoji" font-size="36px" fill="#000000" text-anchor="start" style="white-space: pre;" direction="ltr">id</text></g><g transform="translate(2068.9433004059756 408.6399194250829) rotate(0 111.5 22.5)"><text x="0" y="32" font-family="Virgil, Segoe UI Emoji" font-size="36px" fill="#000000" text-anchor="start" style="white-space: pre;" direction="ltr">name_cinema</text></g><g transform="translate(2068.9433004059756 479.3597394430749) rotate(0 139.5 22.5)"><text x="0" y="32" font-family="Virgil, Segoe UI Emoji" font-size="36px" fill="#000000" text-anchor="start" style="white-space: pre;" direction="ltr">address_cinema</text></g><g transform="translate(2068.9433004059756 550.0795594610668) rotate(0 81.5 22.5)"><text x="0" y="32" font-family="Virgil, Segoe UI Emoji" font-size="36px" fill="#000000" text-anchor="start" style="white-space: pre;" direction="ltr">Zip_code</text></g><g transform="translate(2068.9433004059756 615.7479637634877) rotate(0 96.5 22.5)"><text x="0" y="32" font-family="Virgil, Segoe UI Emoji" font-size="36px" fill="#000000" text-anchor="start" style="white-space: pre;" direction="ltr">seat_code</text></g><g transform="translate(2594.2905348253444 331.1848784529966) rotate(0 14.5 22.5)"><text x="0" y="32" font-family="Virgil, Segoe UI Emoji" font-size="36px" fill="#000000" text-anchor="start" style="white-space: pre;" direction="ltr">id</text></g><g transform="translate(2594.2905348253444 398.5370879939412) rotate(0 39.5 22.5)"><text x="0" y="32" font-family="Virgil, Segoe UI Emoji" font-size="36px" fill="#000000" text-anchor="start" style="white-space: pre;" direction="ltr">title</text></g><g transform="translate(2601.0257557794384 465.88929753488594) rotate(0 45.5 22.5)"><text x="0" y="32" font-family="Virgil, Segoe UI Emoji" font-size="36px" fill="#000000" text-anchor="start" style="white-space: pre;" direction="ltr">genre</text></g><g transform="translate(2599.341950540915 550.0795594610668) rotate(0 31 22.5)"><text x="0" y="32" font-family="Virgil, Segoe UI Emoji" font-size="36px" fill="#000000" text-anchor="start" style="white-space: pre;" direction="ltr">day</text></g><g transform="translate(2604.393366256486 614.0641585249641) rotate(0 50.5 22.5)"><text x="0" y="32" font-family="Virgil, Segoe UI Emoji" font-size="36px" fill="#000000" text-anchor="start" style="white-space: pre;" direction="ltr">hourly</text></g><g transform="translate(3045.8918554330567 310.34752151462794) rotate(0 14.5 22.5)"><text x="0" y="32" font-family="Virgil, Segoe UI Emoji" font-size="36px" fill="#000000" text-anchor="start" style="white-space: pre;" direction="ltr">id</text></g><g transform="translate(3050.5197592125915 368.1963187588177) rotate(0 99 22.5)"><text x="0" y="32" font-family="Virgil, Segoe UI Emoji" font-size="36px" fill="#000000" text-anchor="start" style="white-space: pre;" direction="ltr">movie_title</text></g><g transform="translate(3045.8918554330567 432.98697167231023) rotate(0 31 22.5)"><text x="0" y="32" font-family="Virgil, Segoe UI Emoji" font-size="36px" fill="#000000" text-anchor="start" style="white-space: pre;" direction="ltr">day</text></g><g transform="translate(3045.8918554330567 493.1497208062676) rotate(0 50.5 22.5)"><text x="0" y="32" font-family="Virgil, Segoe UI Emoji" font-size="36px" fill="#000000" text-anchor="start" style="white-space: pre;" direction="ltr">hourly</text></g><g transform="translate(3450.833436142385 386.70793387695835) rotate(0 14.5 22.5)"><text x="0" y="32" font-family="Virgil, Segoe UI Emoji" font-size="36px" fill="#000000" text-anchor="start" style="white-space: pre;" direction="ltr">id</text></g><g transform="translate(3448.5194842526175 432.98697167231023) rotate(0 82.5 22.5)"><text x="0" y="32" font-family="Virgil, Segoe UI Emoji" font-size="36px" fill="#000000" text-anchor="start" style="white-space: pre;" direction="ltr">firstname</text></g><g transform="translate(3450.833436142385 479.266009467662) rotate(0 79 22.5)"><text x="0" y="32" font-family="Virgil, Segoe UI Emoji" font-size="36px" fill="#000000" text-anchor="start" style="white-space: pre;" direction="ltr">lastname</text></g><g transform="translate(3443.8915804730823 523.2310953732463) rotate(0 131 22.5)"><text x="0" y="32" font-family="Virgil, Segoe UI Emoji" font-size="36px" fill="#000000" text-anchor="start" style="white-space: pre;" direction="ltr">date_of_birth</text></g><g transform="translate(3453.147388032153 567.1961812788305) rotate(0 42.5 22.5)"><text x="0" y="32" font-family="Virgil, Segoe UI Emoji" font-size="36px" fill="#000000" text-anchor="start" style="white-space: pre;" direction="ltr">email</text></g><g transform="translate(3453.147388032153 601.9054596253444) rotate(0 80 22.5)"><text x="0" y="32" font-family="Virgil, Segoe UI Emoji" font-size="36px" fill="#000000" text-anchor="start" style="white-space: pre;" direction="ltr">password</text></g><g transform="translate(3849.2544013104725 414.6797668431775) rotate(0 14.5 22.5)"><text x="0" y="32" font-family="Virgil, Segoe UI Emoji" font-size="36px" fill="#000000" text-anchor="start" style="white-space: pre;" direction="ltr">id</text></g><g transform="translate(3855.1208685505267 458.67827114358147) rotate(0 107.5 22.5)"><text x="0" y="32" font-family="Virgil, Segoe UI Emoji" font-size="36px" fill="#000000" text-anchor="start" style="white-space: pre;" direction="ltr">customer_id</text></g><g transform="translate(3858.0541021705535 502.67677544398543) rotate(0 96.5 22.5)"><text x="0" y="32" font-family="Virgil, Segoe UI Emoji" font-size="36px" fill="#000000" text-anchor="start" style="white-space: pre;" direction="ltr">order_time</text></g><g transform="translate(3858.0541021705535 555.4749806044701) rotate(0 155.5 22.5)"><text x="0" y="32" font-family="Virgil, Segoe UI Emoji" font-size="36px" fill="#000000" text-anchor="start" style="white-space: pre;" direction="ltr">type_of_payment</text></g><g transform="translate(3860.9873357905803 611.2064193849819) rotate(0 135 22.5)"><text x="0" y="32" font-family="Virgil, Segoe UI Emoji" font-size="36px" fill="#000000" text-anchor="start" style="white-space: pre;" direction="ltr">payment_choice</text></g><g transform="translate(3863.920569410607 678.6707926456013) rotate(0 130.5 22.5)"><text x="0" y="32" font-family="Virgil, Segoe UI Emoji" font-size="36px" fill="#000000" text-anchor="start" style="white-space: pre;" direction="ltr">price_selection</text></g><g transform="translate(3860.9873357905803 734.4022314261128) rotate(0 83.5 22.5)"><text x="0" y="32" font-family="Virgil, Segoe UI Emoji" font-size="36px" fill="#000000" text-anchor="start" style="white-space: pre;" direction="ltr">end_price</text></g><g transform="translate(1553.4789985835764 969.0721464439314) rotate(0 14.5 22.5)"><text x="0" y="32" font-family="Virgil, Segoe UI Emoji" font-size="36px" fill="#000000" text-anchor="start" style="white-space: pre;" direction="ltr">id</text></g><g transform="translate(1559.389930929739 1048.8697331171247) rotate(0 123 22.50000000000003)"><text x="0" y="32" font-family="Virgil, Segoe UI Emoji" font-size="36px" fill="#000000" text-anchor="start" style="white-space: pre;" direction="ltr">student_card</text></g><g transform="translate(1559.389930929739 1134.5782521364808) rotate(0 76 22.5)"><text x="0" y="32" font-family="Virgil, Segoe UI Emoji" font-size="36px" fill="#000000" text-anchor="start" style="white-space: pre;" direction="ltr">selection</text></g><g transform="translate(2105.2119120404514 972.5061293574846) rotate(0 14.5 22.5)"><text x="0" y="32" font-family="Virgil, Segoe UI Emoji" font-size="36px" fill="#000000" text-anchor="start" style="white-space: pre;" direction="ltr">id</text></g><g transform="translate(2102.643429060474 1041.855169816887) rotate(0 140.5 22.5)"><text x="0" y="32" font-family="Virgil, Segoe UI Emoji" font-size="36px" fill="#000000" text-anchor="start" style="white-space: pre;" direction="ltr">type-of-payment</text></g><g transform="translate(2107.7803950204293 1134.32055709609) rotate(0 135 22.5)"><text x="0" y="32" font-family="Virgil, Segoe UI Emoji" font-size="36px" fill="#000000" text-anchor="start" style="white-space: pre;" direction="ltr">payment_choice</text></g><g transform="translate(2529.0116037367993 918.5679867779494) rotate(0 14.5 22.5)"><text x="0" y="32" font-family="Virgil, Segoe UI Emoji" font-size="36px" fill="#000000" text-anchor="start" style="white-space: pre;" direction="ltr">id</text></g><g transform="translate(2531.5800867167773 962.2321974375731) rotate(0 82.5 22.5)"><text x="0" y="32" font-family="Virgil, Segoe UI Emoji" font-size="36px" fill="#000000" text-anchor="start" style="white-space: pre;" direction="ltr">firstname</text></g><g transform="translate(2536.717052676733 1016.1703400171083) rotate(0 79 22.5)"><text x="0" y="32" font-family="Virgil, Segoe UI Emoji" font-size="36px" fill="#000000" text-anchor="start" style="white-space: pre;" direction="ltr">lastname</text></g><g transform="translate(2536.717052676733 1072.6769655766213) rotate(0 131 22.5)"><text x="0" y="32" font-family="Virgil, Segoe UI Emoji" font-size="36px" fill="#000000" text-anchor="start" style="white-space: pre;" direction="ltr">date_of_birth</text></g><g transform="translate(2539.2855356567106 1126.6151081561566) rotate(0 42.5 22.5)"><text x="0" y="32" font-family="Virgil, Segoe UI Emoji" font-size="36px" fill="#000000" text-anchor="start" style="white-space: pre;" direction="ltr">email</text></g><g transform="translate(2539.2855356567106 1185.6902166956475) rotate(0 80 22.5)"><text x="0" y="32" font-family="Virgil, Segoe UI Emoji" font-size="36px" fill="#000000" text-anchor="start" style="white-space: pre;" direction="ltr">password</text></g><g transform="translate(2886.0307379537226 931.4104016778388) rotate(0 14.5 22.5)"><text x="0" y="32" font-family="Virgil, Segoe UI Emoji" font-size="36px" fill="#000000" text-anchor="start" style="white-space: pre;" direction="ltr">id</text></g><g transform="translate(2888.5992209337005 990.4855102173296) rotate(0 82.5 22.5)"><text x="0" y="32" font-family="Virgil, Segoe UI Emoji" font-size="36px" fill="#000000" text-anchor="start" style="white-space: pre;" direction="ltr">firstname</text></g><g transform="translate(2891.1677039136785 1041.855169816887) rotate(0 79 22.5)"><text x="0" y="32" font-family="Virgil, Segoe UI Emoji" font-size="36px" fill="#000000" text-anchor="start" style="white-space: pre;" direction="ltr">lastname</text></g><g transform="translate(2852.6404592140107 1093.2248294164442) rotate(0 131 22.5)"><text x="0" y="32" font-family="Virgil, Segoe UI Emoji" font-size="36px" fill="#000000" text-anchor="start" style="white-space: pre;" direction="ltr">date_of_birth</text></g><g transform="translate(2878.325289013789 1147.1629719959794) rotate(0 42.5 22.5)"><text x="0" y="32" font-family="Virgil, Segoe UI Emoji" font-size="36px" fill="#000000" text-anchor="start" style="white-space: pre;" direction="ltr">email</text></g><g transform="translate(2883.462254973745 1190.827182655603) rotate(0 80 22.5)"><text x="0" y="32" font-family="Virgil, Segoe UI Emoji" font-size="36px" fill="#000000" text-anchor="start" style="white-space: pre;" direction="ltr">password</text></g><g transform="translate(3225.070491310801 923.7049527379052) rotate(0 14.5 22.5)"><text x="0" y="32" font-family="Virgil, Segoe UI Emoji" font-size="36px" fill="#000000" text-anchor="start" style="white-space: pre;" direction="ltr">id</text></g><g transform="translate(3225.070491310801 980.2115782974182) rotate(0 75.5 22.5)"><text x="0" y="32" font-family="Virgil, Segoe UI Emoji" font-size="36px" fill="#000000" text-anchor="start" style="white-space: pre;" direction="ltr">admin_id</text></g><g transform="translate(1544.84905809347 1609.6028262621785) rotate(0 14.5 22.5)"><text x="0" y="32" font-family="Virgil, Segoe UI Emoji" font-size="36px" fill="#000000" text-anchor="start" style="white-space: pre;" direction="ltr">id</text></g><g transform="translate(1542.198396148985 1662.6160651518785) rotate(0 120 22.5)"><text x="0" y="32" font-family="Virgil, Segoe UI Emoji" font-size="36px" fill="#000000" text-anchor="start" style="white-space: pre;" direction="ltr">serial_number</text></g><g transform="translate(1547.499720037955 1731.5332757084893) rotate(0 31 22.5)"><text x="0" y="32" font-family="Virgil, Segoe UI Emoji" font-size="36px" fill="#000000" text-anchor="start" style="white-space: pre;" direction="ltr">day</text></g><g transform="translate(1550.1503819824402 1792.4985004316445) rotate(0 50.5 22.5)"><text x="0" y="32" font-family="Virgil, Segoe UI Emoji" font-size="36px" fill="#000000" text-anchor="start" style="white-space: pre;" direction="ltr">hourly</text></g><g transform="translate(1536.897072260015 1848.1624012658303) rotate(0 96.5 22.5)"><text x="0" y="32" font-family="Virgil, Segoe UI Emoji" font-size="36px" fill="#000000" text-anchor="start" style="white-space: pre;" direction="ltr">seat_code</text></g><g transform="translate(1536.897072260015 1901.1756401555303) rotate(0 77 22.5)"><text x="0" y="32" font-family="Virgil, Segoe UI Emoji" font-size="36px" fill="#000000" text-anchor="start" style="white-space: pre;" direction="ltr">purchase</text></g><g transform="translate(2151.850643380539 1604.3015023732082) rotate(0 14.5 22.5)"><text x="0" y="32" font-family="Virgil, Segoe UI Emoji" font-size="36px" fill="#000000" text-anchor="start" style="white-space: pre;" direction="ltr">id</text></g><g transform="translate(2154.501305325024 1673.2187129298186) rotate(0 81.5 22.5)"><text x="0" y="32" font-family="Virgil, Segoe UI Emoji" font-size="36px" fill="#000000" text-anchor="start" style="white-space: pre;" direction="ltr">ticket_id</text></g><g transform="translate(2806.564143668339 1622.8561359846035) rotate(0 14.5 22.5)"><text x="0" y="32" font-family="Virgil, Segoe UI Emoji" font-size="36px" fill="#000000" text-anchor="start" style="white-space: pre;" direction="ltr">id</text></g><g transform="translate(2806.564143668339 1689.122684596729) rotate(0 93.5 22.5)"><text x="0" y="32" font-family="Virgil, Segoe UI Emoji" font-size="36px" fill="#000000" text-anchor="start" style="white-space: pre;" direction="ltr">complex_id</text></g><g transform="translate(2809.214805612824 1763.3412190423096) rotate(0 47 22.5)"><text x="0" y="32" font-family="Virgil, Segoe UI Emoji" font-size="36px" fill="#000000" text-anchor="start" style="white-space: pre;" direction="ltr">descr</text></g><g transform="translate(2809.214805612824 1842.86107737686) rotate(0 40 22.5)"><text x="0" y="32" font-family="Virgil, Segoe UI Emoji" font-size="36px" fill="#000000" text-anchor="start" style="white-space: pre;" direction="ltr">price</text></g><g transform="translate(2811.865467557309 1922.3809357114105) rotate(0 31 22.5)"><text x="0" y="32" font-family="Virgil, Segoe UI Emoji" font-size="36px" fill="#000000" text-anchor="start" style="white-space: pre;" direction="ltr">day</text></g><g transform="translate(2811.865467557309 1991.298146268021) rotate(0 96.5 22.5)"><text x="0" y="32" font-family="Virgil, Segoe UI Emoji" font-size="36px" fill="#000000" text-anchor="start" style="white-space: pre;" direction="ltr">order_time</text></g><g transform="translate(1736.3619987188658 2648.7713510826416) rotate(0 330.5 22.5)"><text x="0" y="32" font-family="Virgil, Segoe UI Emoji" font-size="36px" fill="#364fc7" text-anchor="start" style="white-space: pre;" direction="ltr">CONTRAINTES/ CLES ETRANGERES</text></g><g stroke-linecap="round"><g transform="translate(2071.6561549543894 2386.456733395078) rotate(0 -1.0040165476179652 79.45900115710037)"><path d="M-0.64 -0.97 C-1.04 25.55, -2.85 133.19, -3.23 159.89 M1.23 1.13 C1.27 27.28, -0.11 131.69, -0.99 158.29" stroke="#364fc7" stroke-width="1" fill="none"></path></g><g transform="translate(2071.6561549543894 2386.456733395078) rotate(0 -1.0040165476179652 79.45900115710037)"><path d="M-12.26 128.4 C-6.6 135.48, -5.5 142.09, -0.47 159.21 M-10.3 129.71 C-8.94 138.17, -5.33 145.58, -0.95 157.82" stroke="#364fc7" stroke-width="1" fill="none"></path></g><g transform="translate(2071.6561549543894 2386.456733395078) rotate(0 -1.0040165476179652 79.45900115710037)"><path d="M8.25 128.84 C9.19 135.71, 5.57 142.22, -0.47 159.21 M10.22 130.15 C5.77 138.39, 3.56 145.68, -0.95 157.82" stroke="#364fc7" stroke-width="1" fill="none"></path></g></g><g stroke-linecap="round" transform="translate(1343.5857629671368 2915.9864298866364) rotate(0 381.8745033304706 378.9370071510052)"><path d="M-0.14 0.44 C161.35 1.81, 322.54 1.73, 764.17 0.65 M-0.03 0.16 C215.86 0.18, 432.22 0.64, 763.35 -0.31 M764.55 0.66 C765.67 215.87, 765.4 432.15, 764.11 757.83 M763.48 0.27 C761.09 283.36, 760.73 566.31, 764.07 757.92 M763.09 758.36 C552.12 758.75, 339.94 758.53, -0.68 757.91 M763.39 757.5 C510.32 756.86, 256.85 756.91, -0.3 758.24 M-0.35 757.1 C0.35 591.51, 0.27 424.99, -0.2 0.14 M-0.1 757.78 C-1.65 602.56, -1.33 447.49, -0.37 0.37" stroke="#000000" stroke-width="1" fill="none"></path></g><g stroke-linecap="round"><g transform="translate(1343.5857629671368 3089.2987044750803) rotate(0 381.54973220329134 -1.1433655440673647)"><path d="M0.27 1 C127.81 0.9, 637.05 -1.3, 764.15 -1.78 M-1.05 0.49 C126.46 0.17, 635.69 -2.61, 763.41 -3.29" stroke="#000000" stroke-width="1" fill="none"></path></g></g><g stroke-linecap="round" transform="translate(2594.959135419294 2904.236445168776) rotate(0 485.5637222941224 393.62448804833093)"><path d="M-0.22 0.69 C247.99 -3.51, 495.82 -4.04, 970.81 0.63 M-0.28 -0.22 C307.27 -3.01, 615.17 -2.66, 971.38 0.08 M971.04 0.13 C971.43 226.72, 970.84 452.71, 970.51 786.67 M971.4 0.15 C969.29 178.29, 969.97 355.79, 971.25 787.05 M970.37 787.78 C583.34 788.32, 197.13 789.77, 0.48 787.54 M971.35 787.03 C732.7 788.93, 494.82 788.77, 0.09 787.19 M0.6 787.11 C-1.78 559.12, -1.5 332.57, 0.6 0.68 M0.32 787.36 C-0.21 528.08, -0.32 268.45, -0.03 -0.19" stroke="#000000" stroke-width="1" fill="none"></path></g><g stroke-linecap="round"><g transform="translate(2594.959135419294 3101.048689192941) rotate(0 483.6614639330818 4.537938914656252)"><path d="M1.1 0.5 C162.1 1.91, 806.44 6.74, 967.11 8.15 M0.21 -0.28 C161.07 1.3, 805.57 7.58, 966.79 9.36" stroke="#000000" stroke-width="1" fill="none"></path></g></g><g transform="translate(1675.2723046232707 2987.472396301786) rotate(0 52.5 22.5)"><text x="0" y="32" font-family="Virgil, Segoe UI Emoji" font-size="36px" fill="#000000" text-anchor="start" style="white-space: pre;" direction="ltr">ticket</text></g><g transform="translate(2975.539821309755 2987.472396301786) rotate(0 113 22.5)"><text x="0" y="32" font-family="Virgil, Segoe UI Emoji" font-size="36px" fill="#000000" text-anchor="start" style="white-space: pre;" direction="ltr">ticket_order</text></g><g transform="translate(1443.3532446294826 3147.154372035214) rotate(0 133.5 22.5)"><text x="0" y="32" font-family="Virgil, Segoe UI Emoji" font-size="36px" fill="#000000" text-anchor="start" style="white-space: pre;" direction="ltr">id (primary key)</text></g><g transform="translate(2697.9973396778446 3162.362179247921) rotate(0 133.5 22.5)"><text x="0" y="32" font-family="Virgil, Segoe UI Emoji" font-size="36px" fill="#000000" text-anchor="start" style="white-space: pre;" direction="ltr">id (primary key)</text></g><g transform="translate(2713.2051468905524 3303.034395965465) rotate(0 81.5 22.5)"><text x="0" y="32" font-family="Virgil, Segoe UI Emoji" font-size="36px" fill="#000000" text-anchor="start" style="white-space: pre;" direction="ltr">ticket_id</text></g><g transform="translate(2709.4031950873755 3417.0929500607704) rotate(0 371 67.5)"><text x="0" y="32" font-family="Virgil, Segoe UI Emoji" font-size="36px" fill="#c92a2a" text-anchor="start" style="white-space: pre;" direction="ltr">CONSTRAINT fk_ticket_order_ticket_id</text><text x="0" y="77" font-family="Virgil, Segoe UI Emoji" font-size="36px" fill="#c92a2a" text-anchor="start" style="white-space: pre;" direction="ltr"> FOREIGN KEY (ticket_id)</text><text x="0" y="122" font-family="Virgil, Segoe UI Emoji" font-size="36px" fill="#c92a2a" text-anchor="start" style="white-space: pre;" direction="ltr"> REFERENCES ticket(id)</text></g><g stroke-linecap="round"><g transform="translate(2671.5659322540414 3472.5689066484615) rotate(0 -458.73242581871017 -146.38086507737034)"><path d="M0.18 -0.76 C-152.67 -49.74, -763.79 -245.46, -916.61 -294.22 M-1.18 1.46 C-154.25 -47.29, -764.9 -243.25, -917.65 -292.69" stroke="#c92a2a" stroke-width="1" fill="none"></path></g><g transform="translate(2671.5659322540414 3472.5689066484615) rotate(0 -458.73242581871017 -146.38086507737034)"><path d="M-888.93 -294.08 C-897.93 -293.85, -906.65 -293.9, -919.62 -291.31 M-887.18 -293.8 C-899.11 -293.93, -909.43 -293.06, -917.81 -292.86" stroke="#c92a2a" stroke-width="1" fill="none"></path></g><g transform="translate(2671.5659322540414 3472.5689066484615) rotate(0 -458.73242581871017 -146.38086507737034)"><path d="M-895.22 -274.55 C-902.02 -281, -908.6 -287.72, -919.62 -291.31 M-893.47 -274.27 C-903.05 -281.46, -911.08 -287.71, -917.81 -292.86" stroke="#c92a2a" stroke-width="1" fill="none"></path></g></g><g stroke-linecap="round" transform="translate(1329.943590892735 3989.511287159062) rotate(0 404.50280133432454 368.9215364021386)"><path d="M0.4 -0.52 C233.01 0.72, 466.79 0.11, 808.38 -0.06 M-0.01 -0.39 C175.76 3.52, 350.8 3.08, 808.78 -0.01 M809.45 0.41 C811.38 292.82, 812.23 586.98, 809.68 737.18 M809.13 0.15 C808.55 292.98, 808.24 585.59, 809.21 738.1 M809.12 737.84 C512.79 739.05, 217.48 739.22, 0.11 738.39 M809.12 737.8 C516.43 740.24, 223.83 740.02, 0.3 737.48 M0.1 737.13 C-1.89 522.87, -1.65 309.39, 0.53 0.79 M-0.28 738.18 C-1.18 571.34, -1.03 404.37, -0.38 0.21" stroke="#000000" stroke-width="1" fill="none"></path></g><g stroke-linecap="round"><g transform="translate(1332.135311320866 4184.31593920808) rotate(0 403.6395443405356 2.546776338621612)"><path d="M-0.5 0.99 C134.27 1.76, 673.18 4.17, 807.78 4.63 M1.43 0.46 C136.17 0.92, 672.91 2.31, 807.05 3.09" stroke="#000000" stroke-width="1" fill="none"></path></g></g><g transform="translate(1666.75602864974 4065.35798406641) rotate(0 78.5 22.5)"><text x="0" y="32" font-family="Virgil, Segoe UI Emoji" font-size="36px" fill="#000000" text-anchor="start" style="white-space: pre;" direction="ltr">customer</text></g><g stroke-linecap="round" transform="translate(2619.5419102543606 3970.890055764425) rotate(0 490.20143184005815 444.1731283808981)"><path d="M-0.22 -0.72 C221.68 3.12, 441.68 3.05, 980.93 0.37 M-0.04 -0.13 C281.33 -0.48, 563.54 -0.57, 980.44 -0.02 M980.91 -0.44 C977.27 268.84, 977.19 536.35, 980.3 888 M980.22 -0.17 C977.98 320.57, 978.41 640.87, 980.62 888.5 M980.29 888.18 C611.95 889.39, 243.41 889.47, 0.63 887.84 M980.24 888.04 C603.35 887.81, 226.65 887.79, -0.32 888.03 M-0.79 887.81 C2.3 673.6, 1.95 460.63, 0.24 -0.69 M-0.33 888.72 C-3.34 569.34, -3.46 250.35, 0.26 -0.35" stroke="#000000" stroke-width="1" fill="none"></path></g><g stroke-linecap="round"><g transform="translate(2624.1447406002762 4187.223082022479) rotate(0 484.7950724860835 2.349548224540058)"><path d="M0.26 -1.04 C162.23 0.05, 808.81 4.88, 970.65 5.74 M-1.06 1.02 C160.83 1.83, 807.6 3.27, 969.56 3.92" stroke="#000000" stroke-width="1" fill="none"></path></g></g><g transform="translate(2969.3570165439796 4065.35798406641) rotate(0 139 22.5)"><text x="0" y="32" font-family="Virgil, Segoe UI Emoji" font-size="36px" fill="#000000" text-anchor="start" style="white-space: pre;" direction="ltr">customer_order</text></g><g transform="translate(1491.5424529083236 4251.396956252975) rotate(0 133.5 22.5)"><text x="0" y="32" font-family="Virgil, Segoe UI Emoji" font-size="36px" fill="#000000" text-anchor="start" style="white-space: pre;" direction="ltr">id (primary key)</text></g><g transform="translate(2824.4497415633214 4285.794563702137) rotate(0 133.5 22.5)"><text x="0" y="32" font-family="Virgil, Segoe UI Emoji" font-size="36px" fill="#000000" text-anchor="start" style="white-space: pre;" direction="ltr">id (primary key)</text></g><g transform="translate(2824.4497415633214 4410.485890705346) rotate(0 107.5 22.5)"><text x="0" y="32" font-family="Virgil, Segoe UI Emoji" font-size="36px" fill="#000000" text-anchor="start" style="white-space: pre;" direction="ltr">customer_id</text></g><g transform="translate(2697.273867108006 4521.868632071876) rotate(0 423.5 67.5)"><text x="0" y="32" font-family="Virgil, Segoe UI Emoji" font-size="36px" fill="#c92a2a" text-anchor="start" style="white-space: pre;" direction="ltr">CONSTRAINT fk_customer_order_customer_id</text><text x="0" y="77" font-family="Virgil, Segoe UI Emoji" font-size="36px" fill="#c92a2a" text-anchor="start" style="white-space: pre;" direction="ltr"> FOREIGN KEY (customer_id)</text><text x="0" y="122" font-family="Virgil, Segoe UI Emoji" font-size="36px" fill="#c92a2a" text-anchor="start" style="white-space: pre;" direction="ltr"> REFERENCES customer(id)</text></g><g stroke-linecap="round"><g transform="translate(2660.5245289071922 4606.261986797076) rotate(0 -428.4069814032631 -151.6330984039314)"><path d="M-0.54 -0.84 C-143.37 -51.79, -714.57 -254.06, -857.79 -304.6 M1.38 1.34 C-141.45 -48.93, -715.04 -252.58, -858.19 -303.25" stroke="#c92a2a" stroke-width="1" fill="none"></path></g><g transform="translate(2660.5245289071922 4606.261986797076) rotate(0 -428.4069814032631 -151.6330984039314)"><path d="M-829.59 -301.77 C-835.78 -305.32, -841.96 -303.54, -858.77 -305.01 M-828.88 -304.05 C-837.86 -303.83, -846.27 -302.52, -857.53 -303.76" stroke="#c92a2a" stroke-width="1" fill="none"></path></g><g transform="translate(2660.5245289071922 4606.261986797076) rotate(0 -428.4069814032631 -151.6330984039314)"><path d="M-836.45 -282.43 C-841.22 -290.46, -845.8 -293.19, -858.77 -305.01 M-835.73 -284.71 C-842.44 -290.6, -848.67 -295.41, -857.53 -303.76" stroke="#c92a2a" stroke-width="1" fill="none"></path></g></g><g stroke-linecap="round" transform="translate(1325.4309884348559 5262.077769839943) rotate(0 450.65986932105284 477.11569900123095)"><path d="M0.56 0.59 C321.4 -1.44, 642.95 -2.05, 901.32 -0.43 M-0.39 -0.36 C183.94 0.25, 368.99 0.32, 901.42 -0.18 M901.95 0.47 C903.85 254.27, 904.56 506.88, 900.53 953.57 M901.45 0.08 C899.3 305.9, 899.33 611.08, 901.43 954.39 M902.06 954.19 C583.62 956.57, 267.69 957.27, -0.53 954.56 M901.28 954.54 C688.31 956.69, 475.67 956.56, 0.07 954.47 M0.69 954.39 C1.6 709.23, 1.64 464.13, -0.44 0.51 M0.3 953.88 C0.53 737.54, 0.96 521.76, -0.24 0.17" stroke="#000000" stroke-width="1" fill="none"></path></g><g stroke-linecap="round" transform="translate(2628.673183929357 5218.523599497132) rotate(0 476.3539221227486 506.5986155908595)"><path d="M0.51 0.32 C235.52 1.32, 470.82 1.09, 952.18 -0.7 M0.1 -0.29 C256.19 -2.19, 512.19 -1.63, 952.52 0.39 M952.16 -0.09 C953.03 253.78, 953.11 509.51, 953.27 1013.27 M952.38 -0.28 C949.32 343.61, 949.57 686.15, 953.04 1013.25 M953.39 1012.84 C641.27 1010.24, 330.09 1010.45, 0.13 1012.86 M952.63 1013.33 C641.5 1010.26, 329.78 1010.76, 0.11 1013.49 M0.77 1013.2 C-0.79 800.7, -0.1 590.11, -0.23 -0.56 M-0.15 1013.49 C-3.67 766.58, -3.42 520.23, -0.06 0.25" stroke="#000000" stroke-width="1" fill="none"></path></g><g stroke-linecap="round"><g transform="translate(1327.8674443143045 5535.70563792865) rotate(0 448.7389804096356 6.416964032160195)"><path d="M0.2 0.03 C149.99 2.25, 748.76 10.14, 898.64 12.44 M-1.16 -1 C148.48 1.48, 747.64 11.65, 897.69 13.83" stroke="#000000" stroke-width="1" fill="none"></path></g></g><g stroke-linecap="round"><g transform="translate(2623.9091394186594 5510.068250402486) rotate(0 478.8079061764473 1.6953746926833446)"><path d="M-1.06 -0.2 C158.59 0.53, 798.67 3.98, 958.67 4.75 M0.59 -1.36 C159.97 -1.03, 797.94 1.61, 957.53 2.78" stroke="#000000" stroke-width="1" fill="none"></path></g></g><g transform="translate(1751.755479962765 5384.061466521142) rotate(0 46.5 22.5)"><text x="0" y="32" font-family="Virgil, Segoe UI Emoji" font-size="36px" fill="#000000" text-anchor="start" style="white-space: pre;" direction="ltr">admin</text></g><g transform="translate(3044.61398869057 5354.38930402575) rotate(0 51 22.5)"><text x="0" y="32" font-family="Virgil, Segoe UI Emoji" font-size="36px" fill="#000000" text-anchor="start" style="white-space: pre;" direction="ltr">office</text></g><g transform="translate(1486.2372804281954 5632.45097580889) rotate(0 139.5 22.5)"><text x="0" y="32" font-family="Virgil, Segoe UI Emoji" font-size="36px" fill="#000000" text-anchor="start" style="white-space: pre;" direction="ltr">id (primary_key)</text></g><g transform="translate(2768.6790995365886 5620.307553587814) rotate(0 133.5 22.5)"><text x="0" y="32" font-family="Virgil, Segoe UI Emoji" font-size="36px" fill="#000000" text-anchor="start" style="white-space: pre;" direction="ltr">id (primary key)</text></g><g transform="translate(2760.2113914914653 5764.258590354916) rotate(0 75.5 22.5)"><text x="0" y="32" font-family="Virgil, Segoe UI Emoji" font-size="36px" fill="#000000" text-anchor="start" style="white-space: pre;" direction="ltr">admin_id</text></g><g transform="translate(2768.6790995365886 5925.145043212266) rotate(0 303 67.5)"><text x="0" y="32" font-family="Virgil, Segoe UI Emoji" font-size="36px" fill="#c92a2a" text-anchor="start" style="white-space: pre;" direction="ltr">CONSTRAINT fk_office_admin_id</text><text x="0" y="77" font-family="Virgil, Segoe UI Emoji" font-size="36px" fill="#c92a2a" text-anchor="start" style="white-space: pre;" direction="ltr"> FOREIGN KEY (admin_id)</text><text x="0" y="122" font-family="Virgil, Segoe UI Emoji" font-size="36px" fill="#c92a2a" text-anchor="start" style="white-space: pre;" direction="ltr"> REFERENCES admin(id)</text></g><g stroke-linecap="round"><g transform="translate(2688.2358731079144 6000.41899952813) rotate(0 -440.2576545045978 -162.65259281707995)"><path d="M-1.15 0.41 C-148.04 -53.57, -733.82 -269.76, -880.33 -323.86 M0.44 -0.42 C-146.64 -54.76, -734.12 -272, -880.96 -325.72" stroke="#c92a2a" stroke-width="1" fill="none"></path></g><g transform="translate(2688.2358731079144 6000.41899952813) rotate(0 -440.2576545045978 -162.65259281707995)"><path d="M-850.27 -324.59 C-861.66 -324.71, -873.68 -327.32, -879.65 -326.63 M-851.85 -326.33 C-861.45 -325.54, -870.46 -325.33, -881.11 -326.35" stroke="#c92a2a" stroke-width="1" fill="none"></path></g><g transform="translate(2688.2358731079144 6000.41899952813) rotate(0 -440.2576545045978 -162.65259281707995)"><path d="M-857.36 -305.34 C-866.02 -312.79, -875.32 -322.8, -879.65 -326.63 M-858.93 -307.07 C-866.29 -312.52, -873.01 -318.55, -881.11 -326.35" stroke="#c92a2a" stroke-width="1" fill="none"></path></g></g></svg>